<?xml version="1.0" standalone="no"?>
<!DOCTYPE svg PUBLIC "-//W3C//DTD SVG 20010904//EN"
 "http://www.w3.org/TR/2001/REC-SVG-20010904/DTD/svg10.dtd">
<svg version="1.0" xmlns="http://www.w3.org/2000/svg"
 width="100.000000pt" height="100.000000pt" viewBox="0 0 100.000000 100.000000"
 preserveAspectRatio="xMidYMid meet">

<g transform="translate(0.000000,100.000000) scale(0.100000,-0.100000)"
fill="#000000" stroke="none">
<path d="M0 500 l0 -500 500 0 500 0 0 500 0 500 -500 0 -500 0 0 -500z m760
23 c0 -7 -3 -13 -7 -13 -4 0 -63 55 -130 122 l-123 122 -37 -35 c-21 -20 -62
-57 -90 -84 l-53 -48 0 -178 0 -178 67 -3 c42 -2 68 -8 71 -15 3 -10 -18 -13
-82 -13 l-86 0 0 170 c0 107 -4 170 -10 170 -5 0 -10 -3 -10 -7 -1 -14 -50
-44 -61 -37 -7 4 49 67 137 155 l149 149 132 -132 c73 -73 133 -138 133 -145z
m-272 64 c4 -20 -25 -34 -40 -19 -15 15 -1 44 19 40 10 -2 19 -11 21 -21z m60
0 c4 -20 -25 -34 -40 -19 -15 15 -1 44 19 40 10 -2 19 -11 21 -21z m-60 -60
c4 -20 -25 -34 -40 -19 -15 15 -1 44 19 40 10 -2 19 -11 21 -21z m60 0 c4 -20
-25 -34 -40 -19 -15 15 -1 44 19 40 10 -2 19 -11 21 -21z m255 -76 c8 -8 12
-52 12 -132 0 -153 5 -149 -161 -149 -159 0 -154 -5 -154 148 0 119 3 134 30
145 26 12 260 1 273 -12z"/>
<path d="M534 427 c-2 -7 -3 -60 -2 -118 l3 -104 125 0 125 0 0 115 0 115
-123 3 c-95 2 -124 0 -128 -11z m171 -62 c14 -13 25 -33 25 -45 0 -27 -43 -70
-70 -70 -26 0 -70 43 -70 68 0 30 38 72 66 72 14 0 36 -11 49 -25z"/>
<path d="M630 345 c-26 -32 13 -81 48 -59 22 14 27 41 12 59 -16 19 -44 19
-60 0z"/>
</g>
</svg>
